{"title":"By Any Means S01","uid":10937459,"size":3702577859,"categoryP":"video","categoryS":"tv_shows","magnet":"?xt=urn:btih:e205914fc7d0d0b1252ae8c01c7b2b72bc39dbad&amp;dn=By+Any+Means+S01&amp;tr=udp%3A%2F%2Ftracker.openbittorrent.com%3A80&amp;tr=udp%3A%2F%2Fopen.demonii.com%3A1337&amp;tr=udp%3A%2F%2Ftracker.coppersurfer.tk%3A6969&amp;tr=udp%3A%2F%2Fexodus.desync.com%3A6969","seeders":7,"leechers":2,"uploader":"RedBaron58","files":6,"time":1409445938,"description":"By Any Means (2013) - Crime Drama x264 mp4\n  &lt;a href=&quot;\nhttp://www.imdb.com/title/tt2904568/&quot; rel=&quot;nofollow&quot; target=&quot;_NEW&quot;&gt;\nhttp://www.imdb.com/title/tt2904568/&lt;/a&gt;\n\nTrailer:\n\n\nThank you for your kind comments and thumbs ups on my other torrents, your feedback is welcome.\n\n\nAbout the Series:\nThe series follows the escapades of a clandestine unit that exists in the grey area between law and justice. \nLiving on the edge, they play the criminal elite at their own game. The team consists of the leader, sharp \nand elusive Jack Quinn (Warren Brown), straight-talking Jessica Jones (Shelley Conn), digital whizz-kid \nThomas &quot;TomTom&quot; Tomkins (Andrew-Lee Potts) and Charlie O'Brien (Elliot Knight). \nThey stop at nothing, as they weave a web of cunning and deception, in order to trap their targets and \nbring them to justice\n\n\nI hope you enjoy.\n\n\nTechnical:  (All episodes encoded to the same settings)\n\nGeneral\nComplete name                            : H:By Any Means S01By Any Means S01E01 x264 RB58.mp4\nFormat                                   : MPEG-4\nFormat profile                           : Base Media\nCodec ID                                 : isom\nFile size                                : 582 MiB\nDuration                                 : 58mn 2s\nOverall bit rate mode                    : Variable\nOverall bit rate                         : 1 403 Kbps\nWriting application                      : Lavf54.63.104\n\nVideo\nID                                       : 1\nFormat                                   : AVC\nFormat/Info                              : Advanced Video Codec\nFormat profile                           : &lt;a class=&quot;__cf_email__&quot; href=&quot;/cdn-cgi/l/email-protection&quot; data-cfemail=&quot;c880a1afa08884fbe6f8&quot;&gt;[email&amp;#160;protected]&lt;/a&gt;&lt;script cf-hash='f9e31' type=&quot;text/javascript&quot;&gt;\n/* &lt;![CDATA[ */!function(){try{var t=&quot;currentScript&quot;in document?document.currentScript:function(){for(var t=document.getElementsByTagName(&quot;script&quot;),e=t.length;e--;)if(t[e].getAttribute(&quot;cf-hash&quot;))return t[e]}();if(t&amp;&amp;t.previousSibling){var e,r,n,i,c=t.previousSibling,a=c.getAttribute(&quot;data-cfemail&quot;);if(a){for(e=&quot;&quot;,r=parseInt(a.substr(0,2),16),n=2;a.length-n;n+=2)i=parseInt(a.substr(n,2),16)^r,e+=String.fromCharCode(i);e=document.createTextNode(e),c.parentNode.replaceChild(e,c)}}}catch(u){}}();/* ]]&gt; */&lt;/script&gt;\nFormat settings, CABAC                   : Yes\nFormat settings, ReFrames                : 4 frames\nCodec ID                                 : avc1\nCodec ID/Info                            : Advanced Video Coding\nDuration                                 : 58mn 2s\nBit rate                                 : 1 300 Kbps\nWidth                                    : 832 pixels\nHeight                                   : 468 pixels\nDisplay aspect ratio                     : 16:9\nFrame rate mode                          : Constant\nFrame rate                               : 25.000 fps\nColor space                              : YUV\nChroma subsampling                       : 4:2:0\nBit depth                                : 8 bits\nScan type                                : Progressive\nBits/(Pixel*Frame)                       : 0.134\nStream size                              : 540 MiB (93%)\nWriting library                          : x264 core 123 r2189 35cf912\nEncoding settings                        : cabac=1 / ref=3 / deblock=1:0:0\n\nAudio\nID                                       : 2\nFormat                                   : AAC\nFormat/Info                              : Advanced Audio Codec\nFormat profile                           : LC\nCodec ID                                 : 40\nDuration                                 : 58mn 2s\nBit rate mode                            : Variable\nBit rate                                 : 93.5 Kbps\nMaximum bit rate                         : 128 Kbps\nChannel(s)                               : 2 channels\nChannel positions                        : Front: L R\nSampling rate                            : 48.0 KHz\nCompression mode                         : Lossy\nStream size                              : 38.8 MiB (7%)\nLanguage                                 : English","torrent":{"xt":"urn:btih:e205914fc7d0d0b1252ae8c01c7b2b72bc39dbad","amp;dn":"By+Any+Means+S01","amp;tr":["udp%3A%2F%2Ftracker.openbittorrent.com%3A80","udp%3A%2F%2Fopen.demonii.com%3A1337","udp%3A%2F%2Ftracker.coppersurfer.tk%3A6969","udp%3A%2F%2Fexodus.desync.com%3A6969"],"infoHash":"e205914fc7d0d0b1252ae8c01c7b2b72bc39dbad","infoHashBuffer":{"type":"Buffer","data":[226,5,145,79,199,208,208,177,37,42,232,192,28,123,43,114,188,57,219,173]},"announce":[],"urlList":[]}}